<?xml version="1.0" encoding="utf-8"?>
<!-- Generator: Adobe Illustrator 27.0.0, SVG Export Plug-In . SVG Version: 6.00 Build 0)  -->
<svg version="1.1" xmlns="http://www.w3.org/2000/svg" xmlns:xlink="http://www.w3.org/1999/xlink" x="0px" y="0px"
	 viewBox="0 0 1366 768" style="enable-background:new 0 0 1366 768;" xml:space="preserve">
<style type="text/css">
	.st0{fill:url(#SVGID_1_);}
	.st1{fill:url(#SVGID_00000105418510189633985480000000433169900968812180_);}
</style>
<g id="Capa_1">
</g>
<g id="logo">
	<g>
		<g>
			<linearGradient id="SVGID_1_" gradientUnits="userSpaceOnUse" x1="405.3141" y1="148.1213" x2="407.0826" y2="174.1424">
				<stop  offset="0" style="stop-color:#2A2A2A"/>
				<stop  offset="1" style="stop-color:#5B3636"/>
			</linearGradient>
			<path class="st0" d="M407.3,180.6c0.2,0,0.4,0,0.6,0C407.2,180.5,407,180.6,407.3,180.6z"/>
			
				<linearGradient id="SVGID_00000088106696209291045100000001223490792203962514_" gradientUnits="userSpaceOnUse" x1="416.2966" y1="147.3749" x2="418.0651" y2="173.396">
				<stop  offset="0" style="stop-color:#D8D8D8"/>
				<stop  offset="1" style="stop-color:#5B3636"/>
			</linearGradient>
			<path style="fill:url(#SVGID_00000088106696209291045100000001223490792203962514_);" d="M425.3,152.7c-3.8-2.5-8.1-6.4-9.1-5.4
				c-1,1-2-5.2,2.7-6.2v-0.6c0,0-3.5-0.5-5.3,2.1c0,0,0,0,0,0c0.2-1.9-3.8-1.8-3.8-1.8v0.6c3.6,0.7,2.6,4.1,2.8,4.3c0,0,0,0,0.1,0
				c0,0.3-0.1,0.6-0.1,0.9c0.2,7,0.2,6.4,0.2,7c-0.1,0.5,0.8,13,0.1,13.1s1.2,10.7-1.2,12.1c-2.1,1.2-2.6,1.7-3.7,1.8
				c2.8,0,12.4,0,12.4,0s-1.7-1-3.2-2.1c-1.5-1.1-2.5-10.1-1.8-10.9c0.7-0.8-0.4-1.9,0.7-0.8c1.1,1.1,2.9,3.4,7.6,1.3
				C428.4,166,429.1,155.2,425.3,152.7z M424.6,164.1c-1.7,2.1-1.6,2.8-3.4,2.5c-1.8-0.2-4.3-0.7-4.9-4.6s-1.8-11.8,0-11.6
				c0,0,7.1,0.4,8.7,4.7C426.6,159.5,426.3,162,424.6,164.1z"/>
		</g>
	</g>
</g>
</svg>
